<?xml version="1.0" standalone="no"?>
<!DOCTYPE svg PUBLIC "-//W3C//DTD SVG 20010904//EN"
 "http://www.w3.org/TR/2001/REC-SVG-20010904/DTD/svg10.dtd">
<svg version="1.0" xmlns="http://www.w3.org/2000/svg"
 width="1080.000000pt" height="1080.000000pt" viewBox="0 0 1080.000000 1080.000000"
 preserveAspectRatio="xMidYMid meet">

<g transform="translate(0.000000,1080.000000) scale(0.100000,-0.100000)"
fill="#000000" stroke="none">
<path d="M5816 7979 c-11 -40 -37 -139 -45 -174 -6 -22 -19 -76 -31 -120 -12
-44 -28 -105 -35 -135 -8 -30 -17 -65 -20 -77 -6 -19 -2 -23 37 -33 23 -7 63
-19 88 -27 25 -8 84 -17 132 -20 108 -7 156 9 215 70 113 115 111 314 -4 404
-62 49 -73 53 -262 103 -23 6 -49 14 -57 17 -8 3 -16 -1 -18 -8z m177 -150
c20 -5 55 -27 77 -48 38 -36 40 -41 40 -100 0 -49 -5 -70 -25 -102 -47 -73
-104 -92 -200 -67 -49 13 -56 29 -34 85 6 15 15 48 19 73 5 25 17 73 27 108
19 68 25 71 96 51z"/>
<path d="M4965 7910 c-22 -11 -45 -19 -52 -20 -17 0 -32 -32 -48 -103 -15 -65
-41 -162 -51 -187 -7 -19 -16 -4 -61 104 -18 44 -37 84 -41 88 -9 9 -86 -15
-108 -33 -10 -8 -8 -20 8 -57 27 -64 48 -112 64 -145 8 -16 14 -34 14 -40 1
-7 9 -30 20 -52 11 -22 19 -45 20 -51 0 -6 7 -17 15 -24 8 -7 15 -22 15 -33 0
-25 40 -107 52 -107 17 0 108 42 108 50 0 4 -12 34 -26 66 -14 33 -34 80 -44
106 l-18 47 30 -15 c17 -9 64 -35 104 -59 118 -70 142 -79 167 -67 12 6 39 16
60 22 20 6 37 17 37 25 0 7 -65 50 -145 94 -80 45 -145 85 -145 89 1 11 27
110 50 187 27 92 35 135 24 135 -5 -1 -27 -9 -49 -20z"/>
<path d="M6400 7683 c-30 -47 -59 -93 -63 -102 -4 -9 -25 -43 -47 -76 -55 -84
-120 -190 -120 -197 0 -3 17 -17 38 -30 81 -55 215 -140 227 -144 12 -5 74 72
64 80 -5 3 -100 64 -142 90 l-27 17 26 47 c15 26 30 51 34 55 7 8 64 -21 109
-55 34 -26 57 -22 81 12 27 37 21 47 -57 91 -64 37 -70 47 -49 86 30 59 38 60
124 9 43 -25 84 -46 90 -46 14 0 55 67 47 79 -3 5 -29 24 -58 41 -28 17 -87
53 -130 80 -43 28 -82 50 -85 50 -4 0 -32 -39 -62 -87z"/>
<path d="M4319 7546 c-79 -28 -167 -125 -190 -210 -23 -83 12 -186 87 -261 62
-63 112 -85 194 -85 109 0 204 61 259 165 23 44 29 152 11 200 l-10 26 -55
-47 c-51 -44 -55 -51 -55 -91 0 -37 -6 -50 -39 -86 -36 -39 -42 -41 -93 -41
-43 0 -61 5 -90 27 -57 44 -88 96 -88 149 0 38 6 52 38 88 35 40 42 43 97 48
52 4 65 9 98 40 20 20 37 44 37 54 0 34 -129 50 -201 24z"/>
<path d="M6841 7466 c-12 -18 -21 -36 -21 -39 0 -3 -13 -25 -29 -49 -15 -24
-41 -68 -58 -98 -16 -30 -41 -73 -55 -95 -43 -68 -98 -172 -98 -185 0 -19 78
-107 99 -113 17 -4 115 24 176 51 11 5 45 19 75 30 30 11 96 36 146 56 50 19
103 38 117 42 36 8 34 26 -9 74 -41 45 -48 47 -101 24 -86 -38 -101 -44 -158
-65 -33 -13 -65 -27 -71 -31 -11 -8 -102 -38 -116 -38 -4 0 0 13 10 29 48 82
81 135 139 228 34 55 63 107 63 114 0 15 -68 99 -80 99 -5 0 -18 -15 -29 -34z"/>
<path d="M3797 6921 c-15 -32 -27 -65 -27 -73 0 -16 114 -144 280 -312 l117
-119 27 52 c14 29 26 57 26 61 0 5 -14 25 -31 45 l-32 36 19 42 c10 23 32 65
47 94 l28 52 47 -6 c34 -4 51 -1 58 8 24 30 57 99 51 105 -7 7 -88 18 -257 34
-63 6 -151 17 -195 25 -127 24 -127 24 -158 -44z m273 -91 c36 -7 66 -14 68
-15 4 -3 -28 -76 -45 -102 l-16 -24 -73 72 c-52 51 -70 76 -61 81 12 9 19 8
127 -12z"/>
<path d="M7205 6899 c-38 -17 -79 -34 -90 -39 -89 -40 -286 -120 -293 -120 -5
0 -15 -7 -22 -15 -10 -12 -9 -19 2 -37 8 -13 18 -36 22 -51 4 -16 19 -56 35
-90 16 -34 34 -77 41 -94 14 -38 25 -40 72 -15 18 9 34 18 36 18 1 1 -13 38
-33 82 -19 44 -35 86 -35 94 0 11 85 53 108 53 3 0 18 -27 32 -60 43 -101 41
-99 85 -84 21 8 39 19 42 25 2 6 -10 41 -27 78 -16 37 -30 74 -30 81 0 11 76
45 101 45 3 0 23 -39 44 -87 21 -49 39 -90 41 -92 2 -2 22 4 44 14 44 20 52
46 25 81 -8 10 -15 25 -15 33 0 7 -16 47 -35 88 -19 41 -35 80 -35 87 0 15
-20 36 -34 36 -6 0 -42 -14 -81 -31z"/>
<path d="M3636 6522 c-3 -5 -13 -60 -21 -123 -9 -63 -22 -150 -29 -194 -15
-91 -8 -105 51 -105 35 0 36 2 47 84 3 21 8 41 11 44 7 7 214 -16 297 -34 37
-8 87 -14 111 -14 l45 0 5 58 c2 31 3 59 1 61 -4 5 -17 7 -249 40 -189 27
-200 32 -185 80 5 14 11 40 14 57 5 29 2 32 -33 43 -46 13 -58 14 -65 3z"/>
<path d="M7300 6434 c-47 -7 -120 -18 -163 -24 -44 -6 -87 -15 -97 -20 -10 -6
-39 -10 -64 -10 -25 0 -47 -3 -49 -7 -3 -5 0 -33 5 -63 5 -30 15 -93 21 -140
l12 -85 42 -3 c52 -4 57 9 44 103 -12 86 -8 90 108 98 47 3 106 10 131 16 25
6 76 15 114 20 38 6 73 14 79 20 6 6 6 28 1 58 l-9 48 -45 2 c-25 0 -83 -5
-130 -13z"/>
<path d="M7130 6041 c-100 -33 -160 -102 -186 -213 -21 -89 0 -178 58 -243 48
-54 84 -75 157 -90 213 -44 382 126 337 340 -14 67 -19 78 -70 133 -49 54 -99
74 -191 78 -44 2 -91 0 -105 -5z m221 -179 c33 -38 39 -51 39 -91 0 -33 -7
-57 -25 -83 -43 -64 -98 -82 -182 -63 -47 11 -65 21 -95 55 -47 53 -51 101
-13 165 37 65 95 87 183 71 45 -8 60 -17 93 -54z"/>
<path d="M3924 6000 c-31 -12 -74 -68 -74 -95 0 -13 -4 -26 -9 -29 -5 -4 -12
-25 -16 -49 -14 -93 -35 -127 -79 -127 -44 0 -62 74 -26 110 21 21 25 56 14
123 -4 20 -12 37 -19 37 -7 0 -30 -13 -52 -29 -41 -30 -73 -98 -73 -156 0 -58
32 -140 70 -177 36 -36 41 -38 104 -38 63 0 68 2 101 36 31 31 55 85 55 122 0
39 34 124 54 138 59 38 111 -47 66 -108 -17 -23 -20 -40 -18 -91 3 -59 4 -62
28 -59 14 1 41 19 62 41 29 31 38 49 43 93 15 116 -28 224 -101 254 -37 15
-97 17 -130 4z"/>
<path d="M6878 5513 c-26 -30 -50 -85 -41 -93 4 -5 34 -22 65 -39 94 -50 98
-54 92 -76 -4 -11 -12 -27 -19 -35 -35 -39 -56 -151 -36 -188 5 -9 12 -25 15
-34 8 -28 85 -77 131 -84 53 -7 117 20 153 67 38 48 122 208 122 232 0 17 -13
29 -52 50 -78 39 -263 138 -340 180 -37 20 -69 37 -71 37 -2 0 -11 -8 -19 -17z
m287 -274 c30 -17 55 -34 55 -38 0 -4 -13 -28 -29 -53 -33 -52 -60 -65 -100
-48 -36 15 -53 50 -42 88 11 36 40 82 52 82 5 0 34 -14 64 -31z"/>
<path d="M4253 5338 c-18 -13 -33 -28 -33 -35 0 -6 19 -39 41 -71 23 -33 39
-67 36 -75 -4 -12 -165 -129 -309 -225 -21 -14 -38 -31 -38 -38 0 -20 53 -94
67 -94 8 0 34 15 58 33 24 17 67 48 95 67 28 19 74 51 101 70 27 19 81 57 119
84 39 27 70 53 70 58 0 5 -26 46 -57 91 -31 45 -68 99 -82 120 -13 20 -27 37
-30 37 -4 0 -21 -10 -38 -22z"/>
<path d="M6562 5047 c-61 -62 -112 -119 -112 -127 0 -19 43 -60 62 -60 7 0 43
29 78 65 35 36 67 65 70 65 3 0 25 -18 49 -39 l45 -40 -62 -66 c-34 -36 -62
-69 -62 -74 0 -8 36 -43 57 -55 7 -4 36 17 71 54 32 33 64 60 69 60 13 0 73
-66 73 -80 0 -5 -27 -38 -60 -73 -33 -36 -60 -71 -60 -79 0 -8 13 -26 28 -41
l28 -27 118 119 c108 109 117 121 105 137 -8 11 -72 75 -144 144 -71 68 -132
127 -135 130 -3 3 -28 26 -56 52 l-50 48 -112 -113z"/>
<path d="M4447 5062 c-15 -15 -27 -33 -27 -39 0 -5 27 -36 61 -67 69 -65 71
-51 -22 -151 -126 -136 -209 -234 -209 -248 0 -9 19 -29 43 -47 l42 -31 54 58
c214 229 301 329 301 347 0 14 -36 53 -104 114 -57 50 -106 92 -108 92 -2 0
-16 -13 -31 -28z"/>
<path d="M6385 4880 c-4 -6 -22 -17 -41 -25 l-35 -15 37 -67 c20 -38 44 -76
52 -85 16 -19 10 -48 -10 -48 -13 0 -163 85 -192 109 -13 11 -24 8 -68 -16
-29 -15 -54 -35 -56 -44 -2 -10 25 -31 82 -62 108 -61 112 -66 86 -109 -28
-47 -27 -124 3 -168 63 -93 167 -105 282 -31 22 14 65 37 96 52 34 16 58 35
61 47 4 13 -8 44 -31 84 -21 35 -70 122 -111 193 -40 72 -76 132 -81 135 -4 3
-11 18 -14 33 -5 20 -13 27 -30 27 -13 0 -27 -5 -30 -10z m100 -350 c51 -81
51 -87 -5 -115 -27 -14 -60 -25 -74 -25 -45 0 -81 70 -57 109 7 10 98 70 108
71 2 0 14 -18 28 -40z"/>
<path d="M4748 4772 c-70 -34 -98 -72 -180 -241 -66 -137 -77 -165 -66 -179
14 -16 69 -42 91 -42 7 0 32 42 56 93 24 50 47 99 52 107 4 8 20 39 35 68 16
30 37 60 48 68 34 23 90 18 126 -13 30 -24 32 -30 27 -72 -3 -29 -31 -101 -76
-194 -39 -81 -69 -152 -66 -157 6 -10 87 -50 102 -50 13 0 157 300 173 362 23
89 -30 188 -126 233 -74 35 -147 41 -196 17z"/>
<path d="M5916 4654 c-32 -33 -33 -58 -1 -89 48 -49 129 -20 127 44 -2 70 -74
96 -126 45z"/>
<path d="M5370 4570 c0 -28 -8 -78 -17 -111 -14 -52 -19 -60 -37 -55 -12 3
-49 8 -82 12 l-62 6 -7 -42 c-4 -23 -3 -45 1 -50 5 -4 40 -12 78 -18 37 -6 71
-13 73 -16 3 -3 2 -31 -2 -62 l-7 -56 -76 6 c-43 4 -92 12 -110 18 -18 5 -36
7 -39 4 -3 -3 -8 -28 -11 -56 -3 -38 -1 -50 9 -50 21 -1 238 -29 291 -38 54
-10 58 -6 58 61 0 23 5 60 10 82 9 37 44 254 57 356 l5 46 -47 6 c-86 12 -85
13 -85 -43z"/>
</g>
</svg>
